<mxfile host="app.diagrams.net" modified="2023-05-30T08:41:46.629Z" agent="Mozilla/5.0 (Windows NT 10.0; Win64; x64) AppleWebKit/537.36 (KHTML, like Gecko) Chrome/113.0.0.0 Safari/537.36" etag="rqH8tOlMEvddrxh0xLc4" version="21.3.5" type="github">
  <diagram id="prtHgNgQTEPvFCAcTncT" name="Page-1">
    <mxGraphModel dx="794" dy="1551" grid="1" gridSize="10" guides="1" tooltips="1" connect="1" arrows="1" fold="1" page="1" pageScale="1" pageWidth="827" pageHeight="1169" math="0" shadow="0">
      <root>
        <mxCell id="0" />
        <mxCell id="1" parent="0" />
        <mxCell id="BrdiqnGekOMUu9awPwDF-3" value="ComposeUI" style="rounded=0;whiteSpace=wrap;html=1;" vertex="1" parent="1">
          <mxGeometry x="310" y="-270" width="120" height="60" as="geometry" />
        </mxCell>
        <mxCell id="BrdiqnGekOMUu9awPwDF-4" value="ViewModel" style="rounded=0;whiteSpace=wrap;html=1;" vertex="1" parent="1">
          <mxGeometry x="160" y="-150" width="120" height="60" as="geometry" />
        </mxCell>
        <mxCell id="BrdiqnGekOMUu9awPwDF-5" value="xxService" style="rounded=0;whiteSpace=wrap;html=1;" vertex="1" parent="1">
          <mxGeometry x="470" y="-150" width="120" height="60" as="geometry" />
        </mxCell>
        <mxCell id="BrdiqnGekOMUu9awPwDF-8" value="" style="endArrow=classic;startArrow=classic;html=1;rounded=0;exitX=0.5;exitY=0;exitDx=0;exitDy=0;entryX=0;entryY=0.5;entryDx=0;entryDy=0;" edge="1" parent="1" source="BrdiqnGekOMUu9awPwDF-4" target="BrdiqnGekOMUu9awPwDF-3">
          <mxGeometry width="50" height="50" relative="1" as="geometry">
            <mxPoint x="380" y="-70" as="sourcePoint" />
            <mxPoint x="430" y="-120" as="targetPoint" />
          </mxGeometry>
        </mxCell>
        <mxCell id="BrdiqnGekOMUu9awPwDF-9" value="UIState" style="text;html=1;strokeColor=none;fillColor=none;align=center;verticalAlign=middle;whiteSpace=wrap;rounded=0;" vertex="1" parent="1">
          <mxGeometry x="220" y="-220" width="60" height="30" as="geometry" />
        </mxCell>
        <mxCell id="BrdiqnGekOMUu9awPwDF-10" value="Action" style="text;html=1;strokeColor=none;fillColor=none;align=center;verticalAlign=middle;whiteSpace=wrap;rounded=0;" vertex="1" parent="1">
          <mxGeometry x="260" y="-200" width="60" height="30" as="geometry" />
        </mxCell>
        <mxCell id="BrdiqnGekOMUu9awPwDF-11" value="" style="endArrow=classic;html=1;rounded=0;exitX=1;exitY=0.25;exitDx=0;exitDy=0;entryX=0;entryY=0.25;entryDx=0;entryDy=0;" edge="1" parent="1" source="BrdiqnGekOMUu9awPwDF-18" target="BrdiqnGekOMUu9awPwDF-5">
          <mxGeometry width="50" height="50" relative="1" as="geometry">
            <mxPoint x="380" y="-70" as="sourcePoint" />
            <mxPoint x="340" y="-135" as="targetPoint" />
          </mxGeometry>
        </mxCell>
        <mxCell id="BrdiqnGekOMUu9awPwDF-12" value="" style="endArrow=classic;html=1;rounded=0;entryX=1;entryY=0.5;entryDx=0;entryDy=0;exitX=0;exitY=0.5;exitDx=0;exitDy=0;" edge="1" parent="1" source="BrdiqnGekOMUu9awPwDF-5" target="BrdiqnGekOMUu9awPwDF-4">
          <mxGeometry width="50" height="50" relative="1" as="geometry">
            <mxPoint x="340" y="-120" as="sourcePoint" />
            <mxPoint x="430" y="-120" as="targetPoint" />
          </mxGeometry>
        </mxCell>
        <mxCell id="BrdiqnGekOMUu9awPwDF-16" value="StateFlow" style="text;html=1;strokeColor=none;fillColor=none;align=center;verticalAlign=middle;whiteSpace=wrap;rounded=0;" vertex="1" parent="1">
          <mxGeometry x="340" y="-120" width="60" height="30" as="geometry" />
        </mxCell>
        <mxCell id="BrdiqnGekOMUu9awPwDF-17" value="获取皮肤数据" style="text;html=1;strokeColor=none;fillColor=none;align=center;verticalAlign=middle;whiteSpace=wrap;rounded=0;" vertex="1" parent="1">
          <mxGeometry x="340" y="-190" width="90" height="30" as="geometry" />
        </mxCell>
        <mxCell id="BrdiqnGekOMUu9awPwDF-20" value="" style="endArrow=classic;html=1;rounded=0;exitX=1;exitY=0.25;exitDx=0;exitDy=0;entryX=0;entryY=0.25;entryDx=0;entryDy=0;" edge="1" parent="1" source="BrdiqnGekOMUu9awPwDF-4" target="BrdiqnGekOMUu9awPwDF-18">
          <mxGeometry width="50" height="50" relative="1" as="geometry">
            <mxPoint x="280" y="-135" as="sourcePoint" />
            <mxPoint x="470" y="-135" as="targetPoint" />
          </mxGeometry>
        </mxCell>
        <mxCell id="BrdiqnGekOMUu9awPwDF-18" value="获取编辑数据" style="text;html=1;strokeColor=none;fillColor=none;align=center;verticalAlign=middle;whiteSpace=wrap;rounded=0;" vertex="1" parent="1">
          <mxGeometry x="345" y="-160" width="80" height="30" as="geometry" />
        </mxCell>
      </root>
    </mxGraphModel>
  </diagram>
</mxfile>
